# Blender3D v249 OBJ File: light_bulb.blend
# www.blender3d.org
mtllib light_bulb.mtl
v 0.971822 0.400000 -0.260399
v 0.711423 0.400000 0.711423
v -0.260399 0.400000 0.971822
v -0.971822 0.400000 0.260399
v -0.711423 0.400000 -0.711423
v 0.260398 0.400000 -0.971822
v 0.571828 -0.300000 -0.153221
v 0.418607 -0.300000 0.418607
v -0.153221 -0.300000 0.571828
v -0.571828 -0.300000 0.153221
v -0.418608 -0.300000 -0.418607
v 0.153220 -0.300000 -0.571828
v 0.971822 1.100000 -0.260399
v 0.711423 1.100000 0.711423
v -0.260399 1.100000 0.971822
v -0.971822 1.100000 0.260399
v -0.711423 1.100000 -0.711423
v 0.260398 1.100000 -0.971822
v 0.627334 1.600000 -0.168094
v 0.459240 1.600000 0.459240
v -0.168093 1.600000 0.627334
v -0.627334 1.600000 0.168094
v -0.459240 1.600000 -0.459240
v 0.168093 1.600000 -0.627334
v -0.000000 1.800000 0.000000
v 0.435633 -0.960000 -0.114048
v 0.321585 -0.960000 0.311585
v -0.104048 -0.960000 0.425633
v -0.415633 -0.960000 0.114048
v -0.301585 -0.960000 -0.311585
v 0.124048 -0.960000 -0.425633
v 0.435633 -1.479622 -0.114048
v 0.321585 -1.479622 0.311585
v -0.104048 -1.479622 0.425633
v -0.415633 -1.479622 0.114048
v -0.301585 -1.479622 -0.311585
v 0.124048 -1.479622 -0.425633
v 0.247692 -1.660000 -0.063689
v 0.184002 -1.660000 0.174003
v -0.053689 -1.660000 0.237692
v -0.227692 -1.660000 0.063690
v -0.164003 -1.660000 -0.174002
v 0.073689 -1.660000 -0.237692
v 0.196837 -1.760000 -0.050063
v 0.146774 -1.760000 0.136774
v -0.040063 -1.760000 0.186837
v -0.176837 -1.760000 0.050063
v -0.126774 -1.760000 -0.136774
v 0.060063 -1.760000 -0.186837
v 0.010000 -1.760000 0.000000
vt 0.301506 0.722299
vt 0.251039 0.812797
vt 0.222988 0.714855
vt 0.144729 0.760046
vt 0.372223 0.792909
vt 0.243232 0.821529
vt 0.298088 0.725493
vt 0.214586 0.716089
vt 0.129419 0.763246
vt 0.371791 0.784640
vt 0.214551 0.030053
vt 0.216823 0.024325
vt 0.216889 0.030404
vt 0.210197 0.026761
vt 0.212277 0.028933
vt 0.227702 0.029712
vt 0.230180 0.024325
vt 0.225533 0.028518
vt 0.232239 0.029846
vt 0.229962 0.030119
vt 0.236530 0.026738
vt 0.234455 0.028799
vt 0.223604 0.026655
vt 0.221527 0.028882
vt 0.272042 0.034013
vt 0.256543 0.034013
vt 0.248775 0.019405
vt 0.260958 0.019405
vt 0.168982 0.034013
vt 0.180066 0.019405
vt 0.192250 0.019405
vt 0.184481 0.034013
vt 0.202092 0.034013
vt 0.206092 0.019405
vt 0.220790 0.019405
vt 0.220790 0.034013
vt 0.239488 0.034013
vt 0.235487 0.019405
vt 0.249330 0.019405
vt 0.257098 0.034013
vt 0.168428 0.034013
vt 0.179513 0.019405
vt 0.191696 0.019405
vt 0.183927 0.034013
vt 0.201538 0.034013
vt 0.205538 0.019405
vt 0.220236 0.019405
vt 0.220236 0.034013
vt 0.354758 0.083914
vt 0.326221 0.083914
vt 0.316022 0.050944
vt 0.334272 0.050944
vt 0.357757 0.083914
vt 0.338067 0.050944
vt 0.319639 0.050944
vt 0.329972 0.083914
vt 0.306460 0.083914
vt 0.302197 0.050944
vt 0.284539 0.050944
vt 0.284164 0.083914
vt 0.261704 0.083914
vt 0.266812 0.050944
vt 0.249186 0.050944
vt 0.237842 0.083914
vt 0.206339 0.083914
vt 0.225241 0.050944
vt 0.243305 0.050944
vt 0.234223 0.083914
vt 0.257949 0.083914
vt 0.261354 0.050944
vt 0.279348 0.050944
vt 0.280064 0.083914
vt 0.441778 0.245363
vt 0.349771 0.245363
vt 0.349771 0.069611
vt 0.441778 0.069611
vt 0.165845 0.245363
vt 0.165845 0.069612
vt 0.257852 0.069612
vt 0.257852 0.245363
vt 0.349858 0.069612
vt 0.349858 0.245363
vt 0.441865 0.069611
vt 0.441865 0.245363
vt 0.165758 0.245363
vt 0.165758 0.069611
vt 0.257764 0.069611
vt 0.257764 0.245363
vt 0.457760 0.455673
vt 0.336534 0.464934
vt 0.429111 0.302251
vt 0.376131 0.317303
vt 0.106781 0.428318
vt 0.137699 0.299296
vt 0.181602 0.307834
vt 0.218954 0.447384
vt 0.227227 0.311093
vt 0.274994 0.308962
vt 0.337720 0.448347
vt 0.325279 0.301748
vt 0.464595 0.435457
vt 0.377961 0.288974
vt 0.122682 0.443895
vt 0.153402 0.326797
vt 0.225266 0.461427
vt 0.193568 0.333837
vt 0.235590 0.336109
vt 0.279731 0.333907
vt 0.321632 0.656452
vt 0.444693 0.708675
vt 0.207604 0.644693
vt 0.074489 0.672506
vt 0.319146 0.654598
vt 0.452378 0.708338
vt 0.217072 0.647123
vt 0.092264 0.671774
vt 0.334943 0.578640
vt 0.478273 0.595255
vt 0.207723 0.563600
vt 0.064591 0.556105
vt 0.332996 0.570332
vt 0.486795 0.586755
vt 0.217509 0.570395
vt 0.083654 0.563388
vn 0.628193 0.774926 -0.069704
vn 0.000000 1.000000 0.000000
vn 0.374462 0.774926 0.509171
vn -0.148350 0.819330 0.553728
vn -0.578875 0.774926 0.253700
vn -0.509171 0.774926 -0.374462
vn 0.171484 0.748894 -0.640065
vn -0.000002 -1.000000 -0.000001
vn -0.000001 -1.000000 -0.000002
vn 0.000002 -1.000000 -0.000002
vn 0.000002 -1.000000 0.000001
vn 0.000001 -1.000000 0.000002
vn -0.000002 -1.000000 0.000002
vn 0.643385 -0.414862 -0.643386
vn -0.235496 -0.414862 -0.878881
vn -0.878881 -0.414862 -0.235495
vn -0.643385 -0.414862 0.643386
vn 0.235495 -0.414862 0.878881
vn 0.878881 -0.414862 0.235495
vn 0.217933 -0.539323 -0.813379
vn 0.928007 -0.277322 -0.248665
vn 0.729881 -0.654988 -0.195563
vn 0.213538 -0.564928 -0.796991
vn -0.571276 -0.611194 -0.547746
vn -0.624012 -0.414319 -0.662526
vn -0.760002 -0.611194 0.220832
vn -0.885769 -0.414319 0.209143
vn -0.188726 -0.611194 0.768609
vn -0.261757 -0.414319 0.871670
vn 0.571276 -0.611194 0.547746
vn 0.623981 -0.414319 0.662526
vn 0.335307 -0.093661 -0.937407
vn 0.960509 -0.105808 -0.257241
vn -0.703452 -0.116916 -0.701010
vn -0.932188 -0.136326 0.335246
vn -0.070803 -0.111301 0.991241
vn 0.823542 -0.104801 0.557421
vn 0.133854 -0.340831 -0.930509
vn 0.898770 -0.366375 -0.240699
vn -0.702780 -0.396558 -0.590594
vn -0.893826 -0.378979 0.239601
vn -0.405408 -0.369793 0.835963
vn 0.522629 -0.363201 0.771294
vn 0.866573 0.369457 -0.335398
vn 0.253121 0.208197 -0.944731
vn -0.682241 0.311502 -0.661397
vn -0.913907 0.311502 0.260140
vn -0.159978 0.353221 0.921751
vn 0.788141 0.306467 0.533738
vn 0.950255 -0.179205 -0.254616
vn 0.242012 -0.354198 -0.903287
vn -0.602954 -0.213630 -0.768609
vn -0.938078 -0.304575 0.164892
vn -0.259713 -0.268319 0.927641
vn 0.673482 -0.268319 0.688742
usemtl Material_Light_bulb.jpg
s 1
f 19/1/1 25/2/2 20/3/3
f 20/3/3 25/2/2 21/4/4
f 21/5/4 25/6/2 22/7/5
f 22/7/5 25/6/2 23/8/6
f 23/8/6 25/6/2 24/9/7
f 19/1/1 24/10/7 25/2/2
s off
f 45/11/8 50/12/8 44/13/8
f 46/14/9 50/12/9 45/15/9
f 47/16/10 50/17/10 46/18/10
f 48/19/11 50/17/11 47/20/11
f 49/21/12 50/17/12 48/22/12
f 49/23/13 44/24/13 50/12/13
f 43/25/14 38/26/14 44/27/14
f 43/25/14 44/27/14 49/28/14
f 43/29/15 49/30/15 48/31/15
f 43/29/15 48/31/15 42/32/15
f 42/33/16 48/34/16 47/35/16
f 42/33/16 47/35/16 41/36/16
f 41/37/17 47/38/17 46/39/17
f 41/37/17 46/39/17 40/40/17
f 40/41/18 46/42/18 45/43/18
f 40/41/18 45/43/18 39/44/18
f 39/45/19 45/46/19 44/47/19
f 39/45/19 44/47/19 38/48/19
s 1
f 37/49/20 32/50/21 38/51/22
f 37/49/20 38/51/22 43/52/23
f 37/53/20 43/54/23 42/55/24
f 37/53/20 42/55/24 36/56/25
f 36/57/25 42/58/24 41/59/26
f 36/57/25 41/59/26 35/60/27
f 35/61/27 41/62/26 40/63/28
f 35/61/27 40/63/28 34/64/29
f 34/65/29 40/66/28 39/67/30
f 34/65/29 39/67/30 33/68/31
f 33/69/31 39/70/30 38/71/22
f 33/69/31 38/71/22 32/72/21
f 31/73/32 26/74/33 32/75/21
f 31/73/32 32/75/21 37/76/20
f 31/77/32 37/78/20 36/79/25
f 31/77/32 36/79/25 30/80/34
f 30/80/34 36/79/25 35/81/27
f 30/80/34 35/81/27 29/82/35
f 29/82/35 35/81/27 34/83/29
f 29/82/35 34/83/29 28/84/36
f 28/85/36 34/86/29 33/87/31
f 28/85/36 33/87/31 27/88/37
f 27/88/37 33/87/31 32/75/21
f 27/88/37 32/75/21 26/74/33
f 12/89/38 7/90/39 31/91/32
f 7/90/39 26/92/33 31/91/32
f 12/93/38 31/94/32 30/95/34
f 12/93/38 30/95/34 11/96/40
f 11/96/40 30/97/34 29/98/35
f 11/96/40 29/98/35 10/99/41
f 10/99/41 29/100/35 9/101/42
f 29/100/35 28/102/36 9/101/42
f 9/103/42 28/104/36 8/105/43
f 28/104/36 27/106/37 8/105/43
f 8/105/43 27/107/37 7/90/39
f 27/107/37 26/108/33 7/90/39
f 13/109/44 18/110/45 24/10/7
f 13/109/44 24/10/7 19/1/1
f 17/111/46 23/8/6 24/9/7
f 17/111/46 24/9/7 18/112/45
f 16/113/47 22/7/5 23/8/6
f 16/113/47 23/8/6 17/111/46
f 15/114/48 21/5/4 22/7/5
f 15/114/48 22/7/5 16/113/47
f 14/115/49 20/3/3 15/116/48
f 20/3/3 21/4/4 15/116/48
f 13/109/44 19/1/1 14/115/49
f 19/1/1 20/3/3 14/115/49
f 1/117/50 6/118/51 18/110/45
f 1/117/50 18/110/45 13/109/44
f 5/119/52 17/111/46 18/112/45
f 5/119/52 18/112/45 6/120/51
f 4/121/53 16/113/47 17/111/46
f 4/121/53 17/111/46 5/119/52
f 3/122/54 15/114/48 16/113/47
f 3/122/54 16/113/47 4/121/53
f 2/123/55 14/115/49 15/116/48
f 2/123/55 15/116/48 3/124/54
f 1/117/50 13/109/44 14/115/49
f 1/117/50 14/115/49 2/123/55
f 6/118/51 1/117/50 7/90/39
f 6/118/51 7/90/39 12/89/38
f 6/120/51 12/93/38 11/96/40
f 6/120/51 11/96/40 5/119/52
f 5/119/52 11/96/40 4/121/53
f 11/96/40 10/99/41 4/121/53
f 4/121/53 10/99/41 9/101/42
f 4/121/53 9/101/42 3/122/54
f 3/124/54 9/103/42 8/105/43
f 3/124/54 8/105/43 2/123/55
f 7/90/39 1/117/50 2/123/55
f 7/90/39 2/123/55 8/105/43
